<?xml version="1.0" encoding="UTF-8"?><svg xmlns="http://www.w3.org/2000/svg" viewBox="0 0 275 275"><defs><style>.ck{stroke:#fff;}.ck,.cl{fill:none;stroke-miterlimit:10;stroke-width:3px;}.cl{stroke:#e31b23;}</style></defs><g id="a"><g id="b"/><g id="c"/></g><g id="d"><g id="e"/><g id="f"/></g><g id="g"><g id="h"/><g id="i"/></g><g id="j"><g id="k"/><g id="l"/></g><g id="m"><g id="n"/><g id="o"/></g><g id="p"><g id="q"/><g id="r"/></g><g id="s"><g id="t"/><g id="u"/></g><g id="v"><g id="w"/><g id="x"/></g><g id="y"><g id="a`"/><g id="aa"/></g><g id="ab"><g id="ac"/><g id="ad"/></g><g id="ae"><g id="af"/><g id="ag"/></g><g id="ah"><g id="ai"/><g id="aj"/></g><g id="ak"><g id="al"/><g id="am"/></g><g id="an"><g id="ao"/><g id="ap"/></g><g id="aq"><g id="ar"/><g id="as"/></g><g id="at"><g id="au"/><g id="av"/></g><g id="aw"><g id="ax"/><g id="ay"/></g><g id="b`"><g id="ba"/><g id="bb"/></g><g id="bc"><g id="bd"/><g id="be"/></g><g id="bf"><g id="bg"/><g id="bh"/></g><g id="bi"><g id="bj"/></g><g id="bk"/><g id="bl"/><g id="bm"/><g id="bn"/><g id="bo"/><g id="bp"/><g id="bq"/><g id="br"/><g id="bs"/><g id="bt"/><g id="bu"/><g id="bv"><circle id="bw" cx="137.5" cy="137.5" r="116.91"/><circle class="ck" cx="96.57" cy="155.13" r="29.82"/><circle class="cl" cx="96.95" cy="154.25" r="20.82"/><path class="ck" d="M108.48,153.73c0-5.67-4.6-10.27-10.27-10.27"/><path class="ck" d="M74.76,134.8l28.59-32.62,.14-.19c2.51-2.76,6.13-4.49,10.15-4.49,7.57,0,13.71,6.14,13.71,13.71"/><path class="ck" d="M113.08,97.49c1.29-2.36,3.8-3.96,6.68-3.96,4.2,0,7.6,3.4,7.6,7.6v23.38"/><g><circle class="ck" cx="180.66" cy="155.13" r="29.82"/><circle class="cl" cx="180.28" cy="154.25" r="20.82"/><path class="ck" d="M192.16,153.73c0-5.67-4.6-10.27-10.27-10.27"/><path class="ck" d="M202.46,134.8l-28.59-32.62-.14-.19c-2.51-2.76-6.13-4.49-10.15-4.49-7.57,0-13.71,6.14-13.71,13.71"/><path class="ck" d="M164.15,97.49c-1.29-2.36-3.8-3.96-6.68-3.96-4.2,0-7.6,3.4-7.6,7.6v23.38"/><path class="ck" d="M138.61,151.17h11.76c.24,0,.42-.22,.37-.46l-.32-1.5c-.93-4.29-.81-8.8,.32-13.05,1.19-4.47,3.57-7.77,6.14-11.46,.05-.08,0-.19-.1-.19h-36.34c-.1,0-.15,.11-.1,.19,2.56,3.69,4.95,6.99,6.14,11.46s1.25,8.75,.32,13.05l-.32,1.5c-.05,.24,.13,.46,.37,.46h11.76Z"/></g></g><g id="bx"/><g id="by"/><g id="c`"/><g id="ca"/><g id="cb"/><g id="cc"/><g id="cd"/><g id="ce"/><g id="cf"/><g id="cg"/><g id="ch"/><g id="ci"/><g id="cj"/></svg>