<?xml version="1.0" encoding="UTF-8"?><svg xmlns="http://www.w3.org/2000/svg" viewBox="0 0 275 275"><defs><style>.cj{stroke:#fff;stroke-width:3px;}.cj,.ck{fill:none;stroke-miterlimit:10;}.ck{stroke:#e31b23;stroke-width:4px;}</style></defs><g id="a"><g id="b"/><g id="c"/></g><g id="d"><g id="e"/><g id="f"/></g><g id="g"><g id="h"/><g id="i"/></g><g id="j"><g id="k"/><g id="l"/></g><g id="m"><g id="n"/><g id="o"/></g><g id="p"><g id="q"/><g id="r"/></g><g id="s"><g id="t"/><g id="u"/></g><g id="v"><g id="w"/><g id="x"/></g><g id="y"><g id="a`"/><g id="aa"/></g><g id="ab"><g id="ac"/><g id="ad"/></g><g id="ae"><g id="af"/><g id="ag"/></g><g id="ah"><g id="ai"><circle cx="137.5" cy="137.5" r="116.91"/></g><g id="aj"><path class="ck" d="M142.59,145.83l42.08-42.11c4.41-4.42,4.41-11.57,0-15.99l-.16-.16c-4.42-4.42-11.58-4.42-15.99,0l-30.39,30.39c-.55,.55-1.45,.55-2.01,0l-30.39-30.39c-4.42-4.42-11.58-4.42-15.99,0l-.16,.16c-4.42,4.42-4.42,11.58,0,15.99l42.11,42.11c3.01,3.01,7.9,3.01,10.92,0Z"/><path class="cj" d="M142.59,200.27l42.08-42.11c4.41-4.42,4.41-11.57,0-15.99l-.16-.16c-4.42-4.42-11.58-4.42-15.99,0l-30.39,30.39c-.55,.55-1.45,.55-2.01,0l-30.39-30.39c-4.42-4.42-11.58-4.42-15.99,0l-.16,.16c-4.42,4.42-4.42,11.58,0,15.99l42.11,42.11c3.01,3.01,7.9,3.01,10.92,0Z"/></g></g><g id="ak"><g id="al"/><g id="am"/></g><g id="an"><g id="ao"/><g id="ap"/></g><g id="aq"><g id="ar"/><g id="as"/></g><g id="at"><g id="au"/><g id="av"/></g><g id="aw"><g id="ax"/><g id="ay"/></g><g id="b`"><g id="ba"/><g id="bb"/></g><g id="bc"><g id="bd"/><g id="be"/></g><g id="bf"><g id="bg"/><g id="bh"/></g><g id="bi"><g id="bj"/></g><g id="bk"/><g id="bl"/><g id="bm"/><g id="bn"/><g id="bo"/><g id="bp"/><g id="bq"/><g id="br"/><g id="bs"/><g id="bt"/><g id="bu"/><g id="bv"/><g id="bw"/><g id="bx"/><g id="by"/><g id="c`"/><g id="ca"/><g id="cb"/><g id="cc"/><g id="cd"/><g id="ce"/><g id="cf"/><g id="cg"/><g id="ch"/><g id="ci"/></svg>