<?xml version="1.0" encoding="UTF-8"?><svg xmlns="http://www.w3.org/2000/svg" viewBox="0 0 275 275"><defs><style>.cj{fill:#fff;}.ck{fill:#e30613;}.cl{stroke-width:3px;}.cl,.cm{fill:none;stroke:#fff;stroke-miterlimit:10;}.cm{stroke-width:2px;}.cn{fill:#e31b23;}</style></defs><g id="a"><g id="b"/><g id="c"/></g><g id="d"><g id="e"/><g id="f"/></g><g id="g"><g id="h"/><g id="i"/></g><g id="j"><g id="k"/><g id="l"/></g><g id="m"><g id="n"/><g id="o"/></g><g id="p"><g id="q"/><g id="r"/></g><g id="s"><g id="t"/><g id="u"/></g><g id="v"><g id="w"/><g id="x"/></g><g id="y"><g id="a`"><circle cx="137.5" cy="137.5" r="116.91"/></g><g id="aa"><line class="cm" x1="137.12" y1="63.82" x2="137.12" y2="78.47"/><line class="cm" x1="137.12" y1="108.04" x2="137.12" y2="122.69"/><line class="cm" x1="137.12" y1="176.87" x2="137.12" y2="191.52"/><line class="cm" x1="137.12" y1="196.54" x2="137.12" y2="211.19"/><line class="cm" x1="198.63" y1="138.16" x2="213.28" y2="138.16"/><line class="cm" x1="175.68" y1="138.16" x2="190.33" y2="138.16"/><line class="cm" x1="156.02" y1="138.16" x2="170.67" y2="138.16"/><line class="cm" x1="110.13" y1="138.16" x2="122.47" y2="138.16"/><line class="cm" x1="83.91" y1="138.16" x2="98.55" y2="138.16"/><line class="cm" x1="60.96" y1="138.16" x2="75.61" y2="138.16"/><circle class="cl" cx="136.58" cy="140.52" r="62.05"/><line class="cm" x1="137.12" y1="88.37" x2="137.12" y2="103.02"/><circle class="cl" cx="137.12" cy="140.52" r="45.53"/><circle class="cl" cx="137.12" cy="139.95" r="27.04"/><circle class="cj" cx="93.66" cy="125.55" r="8.56"/><circle class="ck" cx="137.12" cy="140.52" r="10.29"/><circle class="cj" cx="159.21" cy="82.33" r="8.56"/><circle class="cn" cx="139.34" cy="166.14" r="7.31"/><path class="ck" d="M145.39,137.51l30.05-29.36c1.05,.76,1.05-.28,.41-.92l-4.33-4.33c-.64-.64-1.68-.64-2.32,0l-32.09,28.9"/></g></g><g id="ab"><g id="ac"/><g id="ad"/></g><g id="ae"><g id="af"/><g id="ag"/></g><g id="ah"><g id="ai"/><g id="aj"/></g><g id="ak"><g id="al"/><g id="am"/></g><g id="an"><g id="ao"/><g id="ap"/></g><g id="aq"><g id="ar"/><g id="as"/></g><g id="at"><g id="au"/><g id="av"/></g><g id="aw"><g id="ax"/><g id="ay"/></g><g id="b`"><g id="ba"/><g id="bb"/></g><g id="bc"><g id="bd"/><g id="be"/></g><g id="bf"><g id="bg"/><g id="bh"/></g><g id="bi"><g id="bj"/></g><g id="bk"/><g id="bl"/><g id="bm"/><g id="bn"/><g id="bo"/><g id="bp"/><g id="bq"/><g id="br"/><g id="bs"/><g id="bt"/><g id="bu"/><g id="bv"/><g id="bw"/><g id="bx"/><g id="by"/><g id="c`"/><g id="ca"/><g id="cb"/><g id="cc"/><g id="cd"/><g id="ce"/><g id="cf"/><g id="cg"/><g id="ch"/><g id="ci"/></svg>