<?xml version="1.0" encoding="UTF-8"?><svg xmlns="http://www.w3.org/2000/svg" viewBox="0 0 275 275"><defs><style>.ck{fill:#fff;}.cl{stroke-width:3.05px;}.cl,.cm{stroke:#fff;}.cl,.cm,.cn{fill:none;stroke-miterlimit:10;}.cm,.cn{stroke-width:3px;}.cn{stroke:#e31b23;}</style></defs><g id="a"><g id="b"/><g id="c"/></g><g id="d"><g id="e"/><g id="f"/></g><g id="g"><g id="h"/><g id="i"/></g><g id="j"><g id="k"/><g id="l"/></g><g id="m"><g id="n"/><g id="o"/></g><g id="p"><g id="q"/><g id="r"/></g><g id="s"><g id="t"/><g id="u"/></g><g id="v"><g id="w"/><g id="x"/></g><g id="y"><g id="a`"/><g id="aa"/></g><g id="ab"><g id="ac"/><g id="ad"/></g><g id="ae"><g id="af"/><g id="ag"/></g><g id="ah"><g id="ai"/><g id="aj"/></g><g id="ak"><g id="al"/><g id="am"/></g><g id="an"><g id="ao"/><g id="ap"/></g><g id="aq"><g id="ar"/><g id="as"/></g><g id="at"><g id="au"/><g id="av"/></g><g id="aw"><g id="ax"/><g id="ay"/></g><g id="b`"><g id="ba"/><g id="bb"/></g><g id="bc"><g id="bd"/><g id="be"/></g><g id="bf"><g id="bg"/><g id="bh"/></g><g id="bi"><g id="bj"/></g><g id="bk"/><g id="bl"/><g id="bm"/><g id="bn"/><g id="bo"/><g id="bp"/><g id="bq"/><g id="br"/><g id="bs"/><g id="bt"/><g id="bu"/><g id="bv"/><g id="bw"/><g id="bx"/><g id="by"/><g id="c`"/><g id="ca"><circle id="cb" cx="137.5" cy="137.5" r="116.91"/><g><rect class="ck" x="133.43" y="131.78" width="11.57" height="23.14"/><rect class="ck" x="150.79" y="117.31" width="11.57" height="37.61"/><rect class="ck" x="116.08" y="143.35" width="11.57" height="11.57"/><line class="cm" x1="168.15" y1="157.81" x2="110.29" y2="157.81"/><g><polyline class="cn" points="107.87 128.55 128.32 108.1 139.04 118.82 159.48 98.38"/><polyline class="cn" points="160.87 106.83 160.87 97.12 151.19 97.12"/></g><path class="ck" d="M124.55,175.88v6.94h27.38v-6.94m53.2-3.38"/><rect class="ck" x="99.54" y="184.88" width="75.41" height="4.49"/><polyline class="cm" points="172.74 172.5 66.47 172.5 66.47 87.57 209.22 87.57 209.22 124.16"/></g><rect class="cl" x="178.76" y="139.69" width="31.82" height="40.38"/><path class="cm" d="M178.76,180.07h31.82v5.61c0,2.07-1.68,3.76-3.76,3.76h-24.3c-2.07,0-3.76-1.68-3.76-3.76v-5.61h0Z"/><path class="cm" d="M178.76,130.32h31.82v5.61c0,2.07-1.68,3.76-3.76,3.76h-24.3c-2.07,0-3.76-1.68-3.76-3.76v-5.61h0Z" transform="translate(389.34 270.01) rotate(180)"/><line class="cm" x1="192.08" y1="184.71" x2="197.26" y2="184.71"/><line class="cm" x1="190.92" y1="184.71" x2="198.42" y2="184.71"/></g><g id="cc"/><g id="cd"/><g id="ce"/><g id="cf"/><g id="cg"/><g id="ch"/><g id="ci"/><g id="cj"/></svg>