<?xml version="1.0" encoding="UTF-8"?><svg xmlns="http://www.w3.org/2000/svg" viewBox="0 0 275 275"><defs><style>.cj{fill:#fff;}.ck{stroke-width:3px;}.ck,.cl{fill:none;stroke:#fff;stroke-miterlimit:10;}.cl{stroke-width:2px;}.cm{fill:#e31b23;}</style></defs><g id="a"><g id="b"/><g id="c"/></g><g id="d"><g id="e"/><g id="f"/></g><g id="g"><g id="h"/><g id="i"/></g><g id="j"><g id="k"/><g id="l"/></g><g id="m"><g id="n"/><g id="o"/></g><g id="p"><g id="q"/><g id="r"/></g><g id="s"><g id="t"/><g id="u"/></g><g id="v"><g id="w"><circle cx="137.5" cy="137.5" r="116.91"/></g><g id="x"><g><rect class="cm" x="111.33" y="177.29" width="51.16" height="12.86"/><path class="ck" d="M177.55,72.6s11.1-6.49,16.27,.59c3.07,4.2,.24,12.31-3,19.31-3.23,7-11.4,19.86-17.24,23.3-2.29,1.35-1.98-1.08-1.24-3.53,1.3-4.32,2.41-8.7,3.13-13.15,1-6.15,2.08-14.14,2.08-19.81,0-7,0-6.7,0-6.7Z"/><rect class="cl" x="102.12" y="168.46" width="69.43" height="29.95"/><rect class="cj" x="87.26" y="199.27" width="99.52" height="7.36"/></g><path class="ck" d="M114.94,167.23s2.01-4.62,5.54-6.41c3.25-1.65,5-1.87,6.99-2.34,3.16-.74,3.69-1.48,4.2-2.39,.92-1.64,1-5.08,.93-8.16-.69-9.08-.81-6.48-12.59-13.35-8.39-4.9-12.41-12.8-15.04-19.24-4.64-9.58-7.99-32.99-6.05-44.7,.21-1.24,.97-2.28,2.23-2.28h73.61c1.26,0,2.02,1.05,2.23,2.28,1.95,11.71-1.41,35.12-6.05,44.7-2.63,6.43-6.65,14.34-15.04,19.24-11.78,6.87-11.9,4.27-12.59,13.35-.06,3.08,.01,6.52,.93,8.16,.51,.91,1.05,1.65,4.2,2.39,1.98,.47,3.74,.69,6.99,2.34,3.53,1.79,5.54,6.41,5.54,6.41h-46.03Z"/><path class="ck" d="M98.36,72.6s-11.1-6.49-16.27,.59c-3.07,4.2-.24,12.31,3,19.31,3.23,7,11.4,19.86,17.24,23.3,2.29,1.35,1.98-1.08,1.24-3.53-1.3-4.32-2.41-8.7-3.13-13.15-1-6.15-2.08-14.14-2.08-19.81,0-7,0-6.7,0-6.7Z"/></g></g><g id="y"><g id="a`"/><g id="aa"/></g><g id="ab"><g id="ac"/><g id="ad"/></g><g id="ae"><g id="af"/><g id="ag"/></g><g id="ah"><g id="ai"/><g id="aj"/></g><g id="ak"><g id="al"/><g id="am"/></g><g id="an"><g id="ao"/><g id="ap"/></g><g id="aq"><g id="ar"/><g id="as"/></g><g id="at"><g id="au"/><g id="av"/></g><g id="aw"><g id="ax"/><g id="ay"/></g><g id="b`"><g id="ba"/><g id="bb"/></g><g id="bc"><g id="bd"/><g id="be"/></g><g id="bf"><g id="bg"/><g id="bh"/></g><g id="bi"><g id="bj"/></g><g id="bk"/><g id="bl"/><g id="bm"/><g id="bn"/><g id="bo"/><g id="bp"/><g id="bq"/><g id="br"/><g id="bs"/><g id="bt"/><g id="bu"/><g id="bv"/><g id="bw"/><g id="bx"/><g id="by"/><g id="c`"/><g id="ca"/><g id="cb"/><g id="cc"/><g id="cd"/><g id="ce"/><g id="cf"/><g id="cg"/><g id="ch"/><g id="ci"/></svg>