<?xml version="1.0" encoding="UTF-8"?><svg xmlns="http://www.w3.org/2000/svg" viewBox="0 0 275 275"><defs><style>.cj{fill:#fff;}.ck{fill:none;stroke:#fff;stroke-miterlimit:10;stroke-width:3px;}.cl{fill:#e31b23;}</style></defs><g id="a"><g id="b"/><g id="c"/></g><g id="d"><g id="e"/><g id="f"/></g><g id="g"><g id="h"><circle cx="137.5" cy="137.5" r="116.91"/></g><g id="i"><path class="cj" d="M124.23,173.94v6.94h27.38v-6.94m53.2-3.38"/><rect class="cj" x="99.22" y="182.94" width="77.41" height="4.49"/><rect class="ck" x="66.15" y="85.62" width="142.75" height="84.94"/><path class="cl" d="M125.01,129.31c0-11.29-9.15-20.44-20.44-20.44v20.44h20.44Z"/><path class="cj" d="M101.93,131.74v-20.44c-11.29,0-20.44,9.15-20.44,20.44s9.15,20.44,20.44,20.44,20.44-9.15,20.44-20.44h-20.44Z"/><rect class="cl" x="147.76" y="93.38" width="1.65" height="32.99"/><rect class="cj" x="150.23" y="95.85" width="7.42" height="6.6"/><rect class="cl" x="158.48" y="95.85" width="4.95" height="6.6"/><rect class="cj" x="150.23" y="106.57" width="16.49" height="6.6"/><rect class="cl" x="167.55" y="106.57" width="4.95" height="6.6"/><rect class="cj" x="150.23" y="117.29" width="23.09" height="6.6"/><rect class="cl" x="174.15" y="117.29" width="4.95" height="6.6"/><g><rect class="cj" x="146.18" y="159.24" width="29.56" height="1.48"/><rect class="cj" x="158" y="146.68" width="5.91" height="11.82"/><rect class="cj" x="166.87" y="139.29" width="5.91" height="19.21"/><rect class="cj" x="149.13" y="152.59" width="5.91" height="5.91"/></g><line class="ck" x1="133.68" y1="132.5" x2="192.85" y2="132.5"/><line class="ck" x1="133.68" y1="164.48" x2="133.68" y2="93.38"/></g></g><g id="j"><g id="k"/><g id="l"/></g><g id="m"><g id="n"/><g id="o"/></g><g id="p"><g id="q"/><g id="r"/></g><g id="s"><g id="t"/><g id="u"/></g><g id="v"><g id="w"/><g id="x"/></g><g id="y"><g id="a`"/><g id="aa"/></g><g id="ab"><g id="ac"/><g id="ad"/></g><g id="ae"><g id="af"/><g id="ag"/></g><g id="ah"><g id="ai"/><g id="aj"/></g><g id="ak"><g id="al"/><g id="am"/></g><g id="an"><g id="ao"/><g id="ap"/></g><g id="aq"><g id="ar"/><g id="as"/></g><g id="at"><g id="au"/><g id="av"/></g><g id="aw"><g id="ax"/><g id="ay"/></g><g id="b`"><g id="ba"/><g id="bb"/></g><g id="bc"><g id="bd"/><g id="be"/></g><g id="bf"><g id="bg"/><g id="bh"/></g><g id="bi"><g id="bj"/></g><g id="bk"/><g id="bl"/><g id="bm"/><g id="bn"/><g id="bo"/><g id="bp"/><g id="bq"/><g id="br"/><g id="bs"/><g id="bt"/><g id="bu"/><g id="bv"/><g id="bw"/><g id="bx"/><g id="by"/><g id="c`"/><g id="ca"/><g id="cb"/><g id="cc"/><g id="cd"/><g id="ce"/><g id="cf"/><g id="cg"/><g id="ch"/><g id="ci"/></svg>